<mxfile host="app.diagrams.net" modified="2024-06-30T13:52:15.357Z" agent="Mozilla/5.0 (Windows NT 10.0; Win64; x64) AppleWebKit/537.36 (KHTML, like Gecko) Chrome/126.0.0.0 Safari/537.36" etag="7TkQRBrxtETeDncbgLYG" version="24.6.4" type="device">
  <diagram name="Page-1" id="L6zp6_xdgu422V__LJJy">
    <mxGraphModel dx="500" dy="249" grid="1" gridSize="10" guides="1" tooltips="1" connect="1" arrows="1" fold="1" page="1" pageScale="1" pageWidth="850" pageHeight="1100" math="0" shadow="0">
      <root>
        <mxCell id="0" />
        <mxCell id="1" parent="0" />
        <mxCell id="r2VNJdxkfy0inHgnX37M-1" value="" style="image;sketch=0;aspect=fixed;html=1;points=[];align=center;fontSize=12;image=img/lib/mscae/Docker.svg;" vertex="1" parent="1">
          <mxGeometry x="140" y="240" width="60.98" height="50" as="geometry" />
        </mxCell>
        <mxCell id="r2VNJdxkfy0inHgnX37M-2" value="" style="shape=image;verticalLabelPosition=bottom;labelBackgroundColor=default;verticalAlign=top;aspect=fixed;imageAspect=0;image=https://static-00.iconduck.com/assets.00/rabbitmq-icon-484x512-s9lfaapn.png;" vertex="1" parent="1">
          <mxGeometry x="240" y="190.00000000000003" width="24" height="25.39" as="geometry" />
        </mxCell>
        <mxCell id="r2VNJdxkfy0inHgnX37M-4" value="" style="image;html=1;image=img/lib/clip_art/computers/Database_128x128.png" vertex="1" parent="1">
          <mxGeometry x="110" y="330" width="50" height="40" as="geometry" />
        </mxCell>
        <mxCell id="r2VNJdxkfy0inHgnX37M-5" value="" style="image;html=1;image=img/lib/clip_art/computers/Database_128x128.png" vertex="1" parent="1">
          <mxGeometry x="160" y="330" width="50" height="40" as="geometry" />
        </mxCell>
      </root>
    </mxGraphModel>
  </diagram>
</mxfile>
